<svg width="112" height="42" viewBox="0 0 112 42" fill="none" xmlns="http://www.w3.org/2000/svg">
    <path d="M1.16592 11.2601V0H3.33582L8.16144 7.94638H7.01171L11.7564 0H13.9263L13.9425 11.2601H11.4811L11.4649 3.74799H11.9345L8.12905 10.0697H6.96313L3.07673 3.74799H3.62731V11.2601H1.16592Z" fill="white"/>
    <path d="M25.5351 11.2601V2.6059H28.0451V11.2601H25.5351ZM21.1467 5.37265C22.291 5.38338 23.1493 5.64075 23.7215 6.14477C24.3044 6.63807 24.5959 7.34048 24.5959 8.25201C24.5959 9.20643 24.2666 9.95174 23.6081 10.4879C22.9496 11.0134 22.0158 11.2761 20.8067 11.2761L16.564 11.2601V2.6059H19.074V5.37265H21.1467ZM20.5799 9.49062C21.0657 9.50134 21.4382 9.39946 21.6973 9.18499C21.9564 8.97051 22.0859 8.64879 22.0859 8.21984C22.0859 7.79088 21.9564 7.48525 21.6973 7.30295C21.4382 7.10992 21.0657 7.00804 20.5799 6.99732L19.074 6.98123V9.49062H20.5799Z" fill="white"/>
    <path d="M6.59068 26.7346C5.69465 26.7346 4.8634 26.5898 4.09691 26.3003C3.34122 26.0107 2.68269 25.6032 2.12133 25.0777C1.57075 24.5523 1.13893 23.9357 0.82586 23.2279C0.523584 22.5201 0.372447 21.748 0.372447 20.9115C0.372447 20.0751 0.523584 19.3029 0.82586 18.5952C1.13893 17.8874 1.57615 17.2708 2.13752 16.7453C2.69889 16.2198 3.35742 15.8123 4.1131 15.5228C4.86879 15.2332 5.68926 15.0885 6.57449 15.0885C7.47052 15.0885 8.29098 15.2332 9.03588 15.5228C9.79156 15.8123 10.4447 16.2198 10.9953 16.7453C11.5566 17.2708 11.9939 17.8874 12.3069 18.5952C12.62 19.2922 12.7765 20.0643 12.7765 20.9115C12.7765 21.748 12.62 22.5255 12.3069 23.244C11.9939 23.9517 11.5566 24.5684 10.9953 25.0938C10.4447 25.6086 9.79156 26.0107 9.03588 26.3003C8.29098 26.5898 7.47592 26.7346 6.59068 26.7346ZM6.57449 24.5147C7.08188 24.5147 7.54609 24.429 7.96712 24.2574C8.39894 24.0858 8.77678 23.8391 9.10065 23.5174C9.42452 23.1957 9.67281 22.815 9.84554 22.3753C10.0291 21.9357 10.1208 21.4477 10.1208 20.9115C10.1208 20.3753 10.0291 19.8874 9.84554 19.4477C9.67281 19.008 9.42452 18.6273 9.10065 18.3056C8.78758 17.9839 8.41513 17.7373 7.98331 17.5657C7.55149 17.3941 7.08188 17.3083 6.57449 17.3083C6.0671 17.3083 5.59749 17.3941 5.16567 17.5657C4.74464 17.7373 4.3722 17.9839 4.04833 18.3056C3.72446 18.6273 3.47077 19.008 3.28725 19.4477C3.11452 19.8874 3.02815 20.3753 3.02815 20.9115C3.02815 21.437 3.11452 21.9249 3.28725 22.3753C3.47077 22.815 3.71907 23.1957 4.03214 23.5174C4.356 23.8391 4.73385 24.0858 5.16567 24.2574C5.59749 24.429 6.0671 24.5147 6.57449 24.5147Z" fill="white"/>
    <path d="M18.9267 26.7346C18.2142 26.7346 17.5665 26.6327 16.9835 26.429C16.4006 26.2145 15.8932 25.8874 15.4613 25.4477C15.0403 24.9973 14.711 24.4236 14.4735 23.7265C14.2468 23.0295 14.1335 22.1984 14.1335 21.2332C14.1335 20.5469 14.1929 19.9196 14.3116 19.3512C14.4304 18.7828 14.6085 18.2681 14.846 17.807C15.0835 17.3351 15.3858 16.9223 15.7528 16.5684C16.1307 16.2038 16.5679 15.9035 17.0645 15.6676C17.5719 15.4209 18.144 15.2332 18.781 15.1046L22.9265 14.2842L23.2665 16.4397L19.6068 17.1635C19.3909 17.2064 19.1426 17.2654 18.8619 17.3405C18.592 17.4048 18.3168 17.5067 18.0361 17.6461C17.7662 17.7855 17.5125 17.9839 17.275 18.2413C17.0483 18.4879 16.8648 18.815 16.7244 19.2225C16.5841 19.6193 16.5139 20.1126 16.5139 20.7024C16.5139 20.8847 16.5193 21.0241 16.5301 21.1206C16.5517 21.2172 16.5679 21.319 16.5787 21.4263C16.6003 21.5335 16.6111 21.6997 16.6111 21.9249L15.8014 21.1367C16.0389 20.6327 16.3412 20.2038 16.7082 19.8499C17.0861 19.496 17.5179 19.2279 18.0037 19.0456C18.5003 18.8525 19.0509 18.756 19.6554 18.756C20.4759 18.756 21.1938 18.9223 21.8091 19.2547C22.4353 19.5764 22.9211 20.0322 23.2665 20.622C23.612 21.2118 23.7847 21.882 23.7847 22.6327C23.7847 23.4477 23.5796 24.1662 23.1694 24.7882C22.7591 25.3995 22.187 25.8767 21.4529 26.2198C20.7296 26.563 19.8875 26.7346 18.9267 26.7346ZM19.0563 24.7882C19.4773 24.7882 19.8497 24.697 20.1736 24.5147C20.4975 24.3217 20.7458 24.0697 20.9185 23.7587C21.102 23.437 21.1938 23.0777 21.1938 22.681C21.1938 22.2949 21.102 21.9517 20.9185 21.6515C20.7458 21.3512 20.4975 21.1153 20.1736 20.9437C19.8497 20.7721 19.4719 20.6863 19.0401 20.6863C18.619 20.6863 18.2412 20.7721 17.9065 20.9437C17.5719 21.1046 17.3128 21.3298 17.1292 21.6193C16.9457 21.9088 16.854 22.2466 16.854 22.6327C16.854 23.0295 16.9457 23.3941 17.1292 23.7265C17.3236 24.0483 17.5827 24.3056 17.9065 24.4987C18.2412 24.6917 18.6244 24.7882 19.0563 24.7882Z" fill="white"/>
    <path d="M31.1741 20.6542C32.3076 20.6542 33.1712 20.9062 33.765 21.4102C34.3587 21.9142 34.6556 22.6166 34.6556 23.5174C34.6556 24.4826 34.3156 25.2279 33.6354 25.7534C32.9661 26.2788 32.0269 26.5416 30.8178 26.5416H26.6075V19.9464H24.0976V17.8874H29.1337V20.6542H31.1741ZM30.6721 24.7721C31.1363 24.7721 31.4871 24.6595 31.7246 24.4343C31.9621 24.2091 32.0809 23.8874 32.0809 23.4692C32.0809 22.6756 31.6113 22.2788 30.6721 22.2788H29.1337V24.7721H30.6721Z" fill="white"/>
    <path d="M40.4794 26.6702C39.4862 26.6702 38.6118 26.4772 37.8561 26.0912C37.1112 25.7051 36.5336 25.1796 36.1234 24.5147C35.7132 23.8391 35.508 23.0724 35.508 22.2145C35.508 21.3458 35.7078 20.5791 36.1072 19.9142C36.5174 19.2386 37.0734 18.7131 37.7751 18.3378C38.4768 17.9517 39.2703 17.7587 40.1555 17.7587C41.0084 17.7587 41.7749 17.941 42.455 18.3056C43.1459 18.6595 43.6911 19.1743 44.0905 19.8499C44.4899 20.5147 44.6897 21.3137 44.6897 22.2466C44.6897 22.3432 44.6843 22.4558 44.6735 22.5845C44.6627 22.7024 44.6519 22.815 44.6411 22.9223H37.5646V21.4584H43.3132L42.3416 21.8928C42.3416 21.4424 42.2499 21.0509 42.0663 20.7185C41.8828 20.3861 41.6291 20.1287 41.3053 19.9464C40.9814 19.7533 40.6035 19.6568 40.1717 19.6568C39.7399 19.6568 39.3567 19.7533 39.022 19.9464C38.6981 20.1287 38.4444 20.3914 38.2609 20.7346C38.0774 21.067 37.9856 21.4638 37.9856 21.9249V22.311C37.9856 22.7828 38.0882 23.2011 38.2933 23.5657C38.5092 23.9196 38.8061 24.193 39.1839 24.3861C39.5726 24.5684 40.026 24.6595 40.5442 24.6595C41.0084 24.6595 41.4132 24.5898 41.7587 24.4504C42.1149 24.311 42.4388 24.1019 42.7303 23.8231L44.0743 25.2708C43.6749 25.7212 43.1729 26.0697 42.5683 26.3164C41.9638 26.5523 41.2675 26.6702 40.4794 26.6702Z" fill="white"/>
    <path d="M52.5385 25.4155V19.9464H49.6885L49.6399 21.0563C49.6183 21.5174 49.5913 21.9571 49.5589 22.3753C49.5265 22.7936 49.4618 23.1743 49.3646 23.5174C49.2782 23.8499 49.1487 24.134 48.976 24.37C48.8032 24.5952 48.5711 24.7507 48.2796 24.8365L45.7859 24.4826C46.0989 24.4826 46.3526 24.3914 46.547 24.2091C46.7413 24.0161 46.8924 23.7533 47.0004 23.4209C47.1083 23.0777 47.1893 22.6917 47.2433 22.2627C47.2972 21.8231 47.335 21.3619 47.3566 20.8794L47.47 17.8874H55.0646V25.4155H52.5385ZM45.4944 28.4075V24.4826H56.3115V28.4075H53.9635V26.5416H47.8424V28.4075H45.4944Z" fill="white"/>
    <path d="M57.9013 26.5416V17.8874H60.4112V23.0349L64.6539 17.8874H66.9695V26.5416H64.4595V21.3941L60.2331 26.5416H57.9013Z" fill="white"/>
    <path d="M69.3979 26.5416V17.8874H71.9079V21.2654H75.6971V17.8874H78.2233V26.5416H75.6971V23.3083H71.9079V26.5416H69.3979Z" fill="white"/>
    <path d="M86.131 26.5416V23.6622L86.4873 24.0643H84.0745C82.8222 24.0643 81.8398 23.807 81.1273 23.2922C80.4148 22.7775 80.0585 22.0375 80.0585 21.0724C80.0585 20.0429 80.431 19.2547 81.1759 18.7078C81.9316 18.1609 82.9463 17.8874 84.2202 17.8874H88.3819V26.5416H86.131ZM79.929 26.5416L82.2446 23.244H84.8194L82.6171 26.5416H79.929ZM86.131 22.8901V19.2869L86.4873 19.9303H84.2688C83.7506 19.9303 83.3458 20.0268 83.0543 20.2198C82.7736 20.4129 82.6333 20.7239 82.6333 21.1528C82.6333 21.9786 83.1677 22.3914 84.2364 22.3914H86.4873L86.131 22.8901Z" fill="white"/>
    <path d="M95.0686 26.6702C94.0754 26.6702 93.201 26.4772 92.4453 26.0912C91.7004 25.7051 91.1228 25.1796 90.7126 24.5147C90.3024 23.8391 90.0973 23.0724 90.0973 22.2145C90.0973 21.3458 90.297 20.5791 90.6964 19.9142C91.1066 19.2386 91.6626 18.7131 92.3643 18.3378C93.066 17.9517 93.8595 17.7587 94.7447 17.7587C95.5976 17.7587 96.3641 17.941 97.0442 18.3056C97.7351 18.6595 98.2803 19.1743 98.6797 19.8499C99.0792 20.5147 99.2789 21.3137 99.2789 22.2466C99.2789 22.3432 99.2735 22.4558 99.2627 22.5845C99.2519 22.7024 99.2411 22.815 99.2303 22.9223H92.1538V21.4584H97.9024L96.9308 21.8928C96.9308 21.4424 96.8391 21.0509 96.6556 20.7185C96.472 20.3861 96.2183 20.1287 95.8945 19.9464C95.5706 19.7533 95.1928 19.6568 94.7609 19.6568C94.3291 19.6568 93.9459 19.7533 93.6112 19.9464C93.2873 20.1287 93.0336 20.3914 92.8501 20.7346C92.6666 21.067 92.5748 21.4638 92.5748 21.9249V22.311C92.5748 22.7828 92.6774 23.2011 92.8825 23.5657C93.0984 23.9196 93.3953 24.193 93.7731 24.3861C94.1618 24.5684 94.6152 24.6595 95.1334 24.6595C95.5976 24.6595 96.0024 24.5898 96.3479 24.4504C96.7041 24.311 97.028 24.1019 97.3195 23.8231L98.6635 25.2708C98.2641 25.7212 97.7621 26.0697 97.1575 26.3164C96.553 26.5523 95.8567 26.6702 95.0686 26.6702Z" fill="white"/>
    <path d="M101.215 26.5416V17.8874H103.855L107.142 23.807H106.089L109.603 17.8874H111.968L112 26.5416H109.717V20.4611L110.105 20.7185L107.11 25.7051H106.041L103.029 20.5416L103.499 20.429V26.5416H101.215Z" fill="white"/>
    <path d="M3.61111 41.8231V32.0912L4.21026 32.6863H0V30.563H9.82935V32.6863H5.61908L6.20204 32.0912V41.8231H3.61111Z" fill="white"/>
    <path d="M14.6555 41.9517C13.6623 41.9517 12.7878 41.7587 12.0321 41.3727C11.2873 40.9866 10.7097 40.4611 10.2995 39.7962C9.88923 39.1206 9.68411 38.3539 9.68411 37.496C9.68411 36.6273 9.88383 35.8606 10.2833 35.1957C10.6935 34.5201 11.2495 33.9946 11.9512 33.6193C12.6529 33.2332 13.4464 33.0402 14.3316 33.0402C15.1844 33.0402 15.9509 33.2225 16.6311 33.5871C17.322 33.941 17.8671 34.4558 18.2666 35.1314C18.666 35.7962 18.8657 36.5952 18.8657 37.5281C18.8657 37.6247 18.8603 37.7373 18.8495 37.8659C18.8387 37.9839 18.8279 38.0965 18.8172 38.2038H11.7407V36.7399H17.4893L16.5177 37.1743C16.5177 36.7239 16.4259 36.3324 16.2424 36C16.0589 35.6676 15.8052 35.4102 15.4813 35.2279C15.1575 35.0348 14.7796 34.9383 14.3478 34.9383C13.916 34.9383 13.5327 35.0348 13.1981 35.2279C12.8742 35.4102 12.6205 35.6729 12.437 36.0161C12.2535 36.3485 12.1617 36.7453 12.1617 37.2064V37.5925C12.1617 38.0643 12.2643 38.4826 12.4694 38.8472C12.6853 39.2011 12.9822 39.4745 13.36 39.6676C13.7486 39.8499 14.2021 39.941 14.7202 39.941C15.1844 39.941 15.5893 39.8713 15.9347 39.7319C16.291 39.5925 16.6149 39.3834 16.9063 39.1046L18.2504 40.5523C17.8509 41.0027 17.349 41.3512 16.7444 41.5979C16.1399 41.8338 15.4435 41.9517 14.6555 41.9517Z" fill="white"/>
    <path d="M19.399 41.8231L23.3016 36.7399L23.253 38.1233L19.5123 33.1689H22.3462L24.7104 36.4021L23.6416 36.4343L26.0868 33.1689H28.7749L25.0181 38.0751V36.7239L28.9045 41.8231H26.0382L23.5607 38.3807L24.6132 38.5255L22.1518 41.8231H19.399Z" fill="white"/>
    <path d="M30.1481 41.8231V33.1689H32.658V36.5469H36.4473V33.1689H38.9734V41.8231H36.4473V38.5898H32.658V41.8231H30.1481Z" fill="white"/>
    <path d="M45.4724 41.9517C44.544 41.9517 43.7181 41.7587 42.9948 41.3727C42.2823 40.9866 41.7155 40.4611 41.2945 39.7962C40.8843 39.1206 40.6792 38.3539 40.6792 37.496C40.6792 36.6273 40.8843 35.8606 41.2945 35.1957C41.7155 34.5201 42.2823 33.9946 42.9948 33.6193C43.7181 33.2332 44.544 33.0402 45.4724 33.0402C46.39 33.0402 47.2105 33.2332 47.9338 33.6193C48.6571 33.9946 49.2238 34.5147 49.6341 35.1796C50.0443 35.8445 50.2494 36.6166 50.2494 37.496C50.2494 38.3539 50.0443 39.1206 49.6341 39.7962C49.2238 40.4611 48.6571 40.9866 47.9338 41.3727C47.2105 41.7587 46.39 41.9517 45.4724 41.9517ZM45.4724 39.8928C45.8934 39.8928 46.2712 39.7962 46.6059 39.6032C46.9406 39.4102 47.2051 39.1367 47.3994 38.7828C47.5937 38.4182 47.6909 37.9893 47.6909 37.496C47.6909 36.992 47.5937 36.563 47.3994 36.2091C47.2051 35.8552 46.9406 35.5818 46.6059 35.3887C46.2712 35.1957 45.8934 35.0992 45.4724 35.0992C45.0514 35.0992 44.6735 35.1957 44.3388 35.3887C44.0042 35.5818 43.7343 35.8552 43.5292 36.2091C43.3349 36.563 43.2377 36.992 43.2377 37.496C43.2377 37.9893 43.3349 38.4182 43.5292 38.7828C43.7343 39.1367 44.0042 39.4102 44.3388 39.6032C44.6735 39.7962 45.0514 39.8928 45.4724 39.8928Z" fill="white"/>
    <path d="M50.7592 41.807L50.8888 39.748C50.9536 39.7587 51.0183 39.7694 51.0831 39.7802C51.1479 39.7802 51.2073 39.7802 51.2612 39.7802C51.5635 39.7802 51.801 39.6944 51.9737 39.5228C52.1465 39.3512 52.276 39.1206 52.3624 38.8311C52.4487 38.5308 52.5081 38.193 52.5405 37.8177C52.5837 37.4424 52.6161 37.0509 52.6377 36.6434L52.7672 33.1689H60.2161V41.8231H57.69V34.6166L58.2568 35.2279H54.4351L54.9695 34.5844L54.8562 36.756C54.8238 37.5281 54.759 38.2359 54.6618 38.8794C54.5755 39.5228 54.4297 40.0804 54.2246 40.5523C54.0195 41.0134 53.7442 41.3727 53.3988 41.63C53.0533 41.8767 52.6107 42 52.0709 42C51.8766 42 51.6715 41.9839 51.4556 41.9517C51.2396 41.9196 51.0075 41.8713 50.7592 41.807Z" fill="white"/>
    <path d="M66.7261 41.9517C65.7977 41.9517 64.9718 41.7587 64.2485 41.3727C63.536 40.9866 62.9693 40.4611 62.5482 39.7962C62.138 39.1206 61.9329 38.3539 61.9329 37.496C61.9329 36.6273 62.138 35.8606 62.5482 35.1957C62.9693 34.5201 63.536 33.9946 64.2485 33.6193C64.9718 33.2332 65.7977 33.0402 66.7261 33.0402C67.6437 33.0402 68.4642 33.2332 69.1875 33.6193C69.9108 33.9946 70.4776 34.5147 70.8878 35.1796C71.298 35.8445 71.5031 36.6166 71.5031 37.496C71.5031 38.3539 71.298 39.1206 70.8878 39.7962C70.4776 40.4611 69.9108 40.9866 69.1875 41.3727C68.4642 41.7587 67.6437 41.9517 66.7261 41.9517ZM66.7261 39.8928C67.1471 39.8928 67.525 39.7962 67.8596 39.6032C68.1943 39.4102 68.4588 39.1367 68.6531 38.7828C68.8474 38.4182 68.9446 37.9893 68.9446 37.496C68.9446 36.992 68.8474 36.563 68.6531 36.2091C68.4588 35.8552 68.1943 35.5818 67.8596 35.3887C67.525 35.1957 67.1471 35.0992 66.7261 35.0992C66.3051 35.0992 65.9272 35.1957 65.5926 35.3887C65.2579 35.5818 64.988 35.8552 64.7829 36.2091C64.5886 36.563 64.4914 36.992 64.4914 37.496C64.4914 37.9893 64.5886 38.4182 64.7829 38.7828C64.988 39.1367 65.2579 39.4102 65.5926 39.6032C65.9272 39.7962 66.3051 39.8928 66.7261 39.8928Z" fill="white"/>
    <path d="M73.2406 41.8231V33.1689H80.22V35.2279H75.1838L75.7506 34.681V41.8231H73.2406Z" fill="white"/>
    <path d="M81.5587 41.8231V33.1689H84.0687V38.3164L88.3113 33.1689H90.627V41.8231H88.117V36.6756L83.8905 41.8231H81.5587Z" fill="white"/>
    <path d="M93.0553 41.8231V33.1689H95.5653V38.3164L99.8079 33.1689H102.124V41.8231H99.6136V36.6756L95.3872 41.8231H93.0553Z" fill="white"/>
</svg>
