<svg width="42" height="23" viewBox="0 0 42 23" fill="none" xmlns="http://www.w3.org/2000/svg">
    <path fill-rule="evenodd" clip-rule="evenodd" d="M0.43934 10.318C-0.146447 10.9038 -0.146447 11.8536 0.43934 12.4393C0.459698 12.4597 0.480497 12.4793 0.501704 12.4983C0.520648 12.5195 0.5403 12.5403 0.56066 12.5607L10.4393 22.4393C11.0251 23.0251 11.9749 23.0251 12.5607 22.4393C13.1464 21.8536 13.1464 20.9038 12.5607 20.318L4.74264 12.5L40 12.5C40.8284 12.5 41.5 11.8284 41.5 11C41.5 10.1716 40.8284 9.5 40 9.5L5.5 9.5L12.4393 2.56066C13.0251 1.97487 13.0251 1.02513 12.4393 0.43934C11.8536 -0.146447 10.9038 -0.146446 10.318 0.43934L0.43934 10.318Z" fill="#4F5060"/>
</svg>