<svg width="32" height="32" viewBox="0 0 32 32" fill="none" xmlns="http://www.w3.org/2000/svg">
<path d="M32 0H0V32H32V0Z" fill="#4F5060"/>
<path fill-rule="evenodd" clip-rule="evenodd" d="M9.85902 25.5622C10.2172 26.184 11.1146 26.184 11.4736 25.5622L12.5936 23.6188C12.6798 23.4741 12.7251 23.3092 12.7251 23.1411C12.7251 22.973 12.6798 22.8075 12.5936 22.6627L4.88475 9.28575C4.8027 9.13898 4.68261 9.01755 4.53717 8.9335C4.39173 8.84944 4.22628 8.80607 4.05883 8.80874C3.8907 8.80607 3.72592 8.84944 3.58048 8.9335C3.43504 9.01755 3.31495 9.13898 3.23289 9.28575L2.13143 11.1971C2.04537 11.3412 2 11.5067 2 11.6748C2 11.843 2.04537 12.0077 2.13143 12.1525L9.85902 25.5622Z" fill="#30FF9E"/>
<path fill-rule="evenodd" clip-rule="evenodd" d="M18.6693 25.5622C19.0277 26.184 19.9256 26.184 20.2839 25.5622L21.4033 23.6195C21.4894 23.4747 21.5348 23.3099 21.5348 23.1418C21.5348 22.9737 21.4894 22.8083 21.4033 22.6635L15.8967 13.1093C15.8133 12.9638 15.6925 12.843 15.5478 12.7596C15.403 12.6756 15.2382 12.6315 15.0708 12.6315C14.9033 12.6315 14.7392 12.6756 14.5937 12.7596C14.449 12.8437 14.3282 12.9644 14.2448 13.1093L13.1434 15.0199C13.0573 15.1648 13.0119 15.3295 13.0119 15.4983C13.0119 15.6671 13.0573 15.8319 13.1434 15.9766L18.6693 25.5622Z" fill="#00FFC2"/>
<path fill-rule="evenodd" clip-rule="evenodd" d="M21.6709 15.5109L23.8731 19.3323L30.207 8.34442C30.2931 8.19964 30.3385 8.03486 30.3385 7.86608C30.3385 7.69728 30.2931 7.5325 30.207 7.38839L29.1056 5.47768C29.0215 5.33224 28.9014 5.21215 28.756 5.12809C28.6112 5.04403 28.4464 5 28.2789 5C28.1115 5 27.9468 5.04403 27.802 5.12809C27.6572 5.21215 27.5365 5.33224 27.4523 5.47768L21.6709 15.5109Z" fill="#85FFE2"/>
</svg>
