<svg width="28" height="26" viewBox="0 0 28 26" fill="none" xmlns="http://www.w3.org/2000/svg">
    <path d="M27.1388 0.617964C26.7936 0.316246 26.375 0.115519 25.9273 0.0370478C25.4796 -0.0414236 25.0194 0.00528306 24.5956 0.172219L1.58212 9.41823C1.07919 9.61383 0.653073 9.97276 0.369276 10.4399C0.0854799 10.9069 -0.0402837 11.4563 0.0113209 12.0035C0.057486 12.5529 0.276887 13.0721 0.636566 13.4831C0.996245 13.8942 1.47678 14.175 2.00599 14.2832L7.45392 15.3912V22.434C7.45123 22.9379 7.59569 23.4313 7.86882 23.8509C8.14196 24.2706 8.53138 24.5976 8.98732 24.79C9.29245 24.9156 9.61828 24.9805 9.94725 24.9811C10.2746 24.9825 10.5988 24.9167 10.9008 24.7876C11.2028 24.6585 11.4763 24.4688 11.705 24.2297L14.6098 21.2623L19.1726 25.3631C19.6221 25.7728 20.2033 25.9994 20.8057 25.9999C21.0685 26.0023 21.3299 25.9592 21.5786 25.8726C21.9903 25.7398 22.3609 25.4997 22.6539 25.1758C22.9469 24.8519 23.1521 24.4556 23.2492 24.0259L27.9366 3.11413C28.0381 2.66327 28.0174 2.19269 27.8768 1.75292C27.7363 1.31315 27.4811 0.92079 27.1388 0.617964ZM16.4174 6.74376L8.60085 12.513L4.26245 11.6215L16.4174 6.74376ZM10.4459 21.1986V17.518L12.3658 19.2373L10.4459 21.1986ZM20.519 22.5104L11.3435 14.2577L24.5582 4.51504L20.519 22.5104Z" fill="#85FFE2"/>
</svg>
