<svg width="28" height="22" viewBox="0 0 28 22" fill="none" xmlns="http://www.w3.org/2000/svg">
    <path d="M2.8 22C2.03 22 1.37107 21.731 0.8232 21.1929C0.2744 20.6539 0 20.0063 0 19.25V2.75C0 1.99375 0.2744 1.34658 0.8232 0.8085C1.37107 0.2695 2.03 0 2.8 0H25.2C25.97 0 26.6294 0.2695 27.1782 0.8085C27.7261 1.34658 28 1.99375 28 2.75V19.25C28 20.0063 27.7261 20.6539 27.1782 21.1929C26.6294 21.731 25.97 22 25.2 22H2.8ZM25.2 5.5L14.735 11.9281C14.6183 11.9969 14.4956 12.0482 14.3668 12.0821C14.2389 12.117 14.1167 12.1344 14 12.1344C13.8833 12.1344 13.7611 12.117 13.6332 12.0821C13.5044 12.0482 13.3817 11.9969 13.265 11.9281L2.8 5.5V19.25H25.2V5.5ZM14 9.625L25.2 2.75H2.8L14 9.625ZM2.8 5.5V5.84375V3.81563V3.85V2.75V3.85V3.83213V5.84375V5.5V19.25V5.5Z" fill="#85FFE2"/>
</svg>
